<svg xmlns="http://www.w3.org/2000/svg" width="24" height="24" fill="none" viewBox="0 0 24 24" id="email-open">
  <path fill="#3747D6" d="M2 7.5C1.44772 7.5 1 7.94772 1 8.5V21.5C1 22.0523 1.44772 22.5 2 22.5H22C22.5523 22.5 23 22.0523 23 21.5V8.5C23 7.94772 22.5523 7.5 22 7.5H2Z"></path>
  <path fill="#90CAEA" d="M2.00008 9.5C1.55726 9.5 1.16718 9.20877 1.04132 8.78421C0.915464 8.35966 1.08381 7.90289 1.45509 7.66156L11.4551 1.16156C11.7865 0.946148 12.2137 0.946148 12.5451 1.16156L22.5451 7.66156C22.9163 7.90289 23.0847 8.35966 22.9588 8.78421C22.833 9.20877 22.4429 9.5 22.0001 9.5H2.00008Z"></path>
  <path fill="#BDDEF1" d="M2.00008 7.5C1.55726 7.5 1.16718 7.79123 1.04132 8.21578C0.915464 8.64034 1.08381 9.09711 1.45509 9.33844L11.4551 15.8384C11.7865 16.0539 12.2137 16.0539 12.5451 15.8384L22.5451 9.33844C22.9163 9.09711 23.0847 8.64034 22.9588 8.21578C22.833 7.79123 22.4429 7.5 22.0001 7.5H2.00008Z"></path>
</svg>
